<svg width="215" height="74" viewBox="0 0 215 74" fill="none" xmlns="http://www.w3.org/2000/svg">
<path d="M9.18637 21.8531C9.53819 22.6625 10.8282 25.7073 12.0009 28.5979L14.19 33.8781L16.5745 34.2635C21.4218 35.0729 22.2818 35.15 22.2818 34.8417C22.2818 34.649 20.9918 31.3729 19.4282 27.5573L16.5355 20.6198L12.5482 20.5042L8.56091 20.3885L9.18637 21.8531Z" fill="black"/>
<path d="M34.8691 25.9385C33.54 29.0219 32.4454 31.6042 32.4454 31.7198C32.4454 31.8354 33.8136 32.2208 35.4554 32.5677C37.1363 32.9531 38.7 33.3 38.9345 33.4156C39.1691 33.4927 39.7554 32.6833 40.2245 31.5656C40.85 30.024 40.9282 29.4458 40.6154 29.0219C40.3418 28.7521 40.2636 28.4052 40.3809 28.2896C40.4982 28.174 42.7263 28.5979 45.3845 29.2531C48.0427 29.9083 50.2318 30.3708 50.31 30.2937C50.3882 30.2167 49.5282 28.0198 48.3554 25.399L46.2836 20.6198L41.7882 20.5042L37.2536 20.3885L34.8691 25.9385Z" fill="black"/>
<path d="M65.0864 24.9364C64.07 27.4417 62.9364 30.2937 62.5064 31.2958L61.8027 33.0687L65.2036 33.8781C67.08 34.3021 68.7218 34.5333 68.8782 34.3792C69.1518 34.1094 74.6636 21.0052 74.6636 20.6198C74.6636 20.5042 72.9046 20.4271 70.7936 20.4271H66.9236L65.0864 24.9364Z" fill="black"/>
<path d="M91.7073 27.2104C89.6354 30.9489 87.8764 34.225 87.8373 34.4177C87.7591 34.8802 93.5836 36.4219 94.3264 36.1135C94.6 36.0364 95.9291 33.9167 97.2582 31.45C98.6264 29.0219 99.8773 26.9021 99.9945 26.825C100.151 26.7094 101.05 28.0198 101.988 29.7156C102.926 31.45 104.06 32.9531 104.529 33.1458C105.78 33.6854 112.269 35.1114 112.504 34.9187C112.582 34.8031 110.901 31.5656 108.751 27.6729L104.881 20.6198L100.19 20.5042L95.4991 20.3885L91.7073 27.2104Z" fill="black"/>
<path d="M125.482 23.3177V26.2083H133.3H141.079L141.196 28.7906L141.314 31.4115L143.659 32.0281C144.949 32.375 146.591 32.7604 147.295 32.876L148.545 33.1073V29.6771V26.2083H156.364H164.182V23.3177V20.4271H144.832H125.482V23.3177Z" fill="black"/>
<path d="M167.7 23.3177V26.2083L175.635 26.2854L183.532 26.401L183.649 30.9104L183.766 35.4198L185.408 35.8437C186.307 36.075 187.675 36.4219 188.418 36.6531C190.803 37.2698 190.725 37.424 190.842 31.6812L190.959 26.401L198.895 26.2854L206.791 26.2083V23.3177V20.4271H187.245H167.7V23.3177Z" fill="black"/>
<path d="M44.1727 33.4927C44.1727 33.8781 45.2282 35.0729 45.58 35.0729C45.8536 35.0729 44.9936 33.6083 44.5636 33.3385C44.3291 33.2229 44.1727 33.2614 44.1727 33.4927Z" fill="black"/>
<path d="M48.4728 33.7625C48.4728 33.8781 49.45 35.0344 50.6228 36.3448C51.7955 37.6167 52.7337 38.7344 52.6555 38.7729C52.6164 38.8115 51.17 38.5417 49.45 38.1562C47.73 37.7323 46.2837 37.424 46.2446 37.3854C45.8537 37.3469 46.4791 38.8885 49.0982 44.901L52.1082 51.6844L56.9946 51.5687L61.8809 51.4531L64.9691 44.1302C66.65 40.0833 68.0964 36.5375 68.2137 36.1521C68.4091 35.651 68.0573 35.4969 66.3764 35.2656C65.2428 35.15 63.6009 34.9573 62.7409 34.8417L61.1773 34.6104L59.0664 39.6979C57.8937 42.4729 56.8382 44.5927 56.6818 44.4385C56.5255 44.2844 55.47 41.8948 54.3364 39.1969C53.1637 36.4604 51.9128 34.0708 51.5609 33.8781C50.8182 33.4927 48.4728 33.4156 48.4728 33.7625Z" fill="black"/>
<path d="M14.7373 34.5719C14.62 34.649 16.1836 38.5417 18.0991 43.2052L21.6564 51.6844L26.5427 51.5687L31.4682 51.4531L33.6964 46.4427C34.9082 43.6677 35.9245 41.2396 35.9245 41.0083C35.9636 40.5844 30.9209 38.9271 29.7091 38.9271C29.3573 38.9271 28.6927 40.0062 27.95 41.8177C27.3245 43.3979 26.6991 44.7083 26.5818 44.7083C26.4645 44.7083 25.6827 42.9354 24.8227 40.7771L23.2591 36.8458L19.0764 35.651C16.77 34.9573 14.8155 34.4948 14.7373 34.5719Z" fill="black"/>
<path d="M33.97 36.4604C35.1427 37.6937 36.2373 38.8885 36.3937 39.0812C36.5891 39.274 37.0973 38.6187 37.5273 37.5781C37.9573 36.576 38.27 35.6896 38.2309 35.651C38.1527 35.574 37.1364 35.3427 35.9637 35.1115C34.7909 34.8417 33.3837 34.5333 32.8364 34.4177C32.0155 34.225 32.1718 34.4948 33.97 36.4604Z" fill="black"/>
<path d="M144.519 36.4604C145.614 37.7323 146.982 39.1583 147.529 39.6594L148.545 40.5844V38.0792V35.5739L146.317 35.1114C145.066 34.8417 143.698 34.5333 143.268 34.4177C142.76 34.2635 143.151 34.9187 144.519 36.4604Z" fill="black"/>
<path d="M85.4527 38.5031C85.1009 39.1583 84.9445 39.6979 85.1009 39.6979C85.2963 39.7364 86.1563 39.8906 87.0945 40.0448C87.9936 40.2375 88.7363 40.2375 88.7363 40.1219C88.7363 39.9677 88.15 39.2739 87.4073 38.5802L86.0782 37.3083L85.4527 38.5031Z" fill="black"/>
<path d="M108.282 39.1583C109.259 40.199 110.393 41.4323 110.784 41.8948L111.448 42.7042L109.963 42.3958C109.142 42.2031 105.78 41.4323 102.496 40.6615C99.2127 39.9292 95.8118 39.3125 94.9518 39.3125C94.0527 39.3125 93.1146 39.0427 92.8018 38.7344C92.45 38.426 91.8637 38.1562 91.4337 38.1562C90.8082 38.1562 91.3164 38.8885 93.6618 41.4323L96.7109 44.7083H103.435H110.119L111.995 48.1771L113.872 51.6458H117.937H122.003L121.338 50.4125C119.501 46.9052 114.81 38.6573 114.419 38.2719C114.145 38.0406 112.269 37.6937 110.236 37.5781L106.523 37.3083L108.282 39.1583Z" fill="black"/>
<path d="M185.095 39.3896C185.721 40.0833 187.206 41.6635 188.379 42.8583C189.591 44.0917 190.451 45.0937 190.373 45.0937C190.255 45.0937 188.77 44.6698 187.05 44.1302C185.33 43.5906 183.884 43.1667 183.845 43.1667C183.766 43.1667 183.727 45.0552 183.727 47.4062V51.6458H187.245H190.803L190.685 45.5948L190.568 39.5437L187.832 38.85C184.001 37.8865 183.766 37.925 185.095 39.3896Z" fill="black"/>
<path d="M141.118 45.4792V51.6458H144.832H148.585L148.467 46.4042L148.35 41.124L145.223 40.2375C143.503 39.7365 141.861 39.3125 141.626 39.3125C141.235 39.3125 141.118 40.8156 141.118 45.4792Z" fill="black"/>
<path d="M83.7327 41.7406C83.5373 42.0104 82.5209 43.7448 81.5045 45.6719C80.4882 47.5604 79.2764 49.7187 78.8855 50.374L78.1036 51.6458H82.2473H86.3518L88.2282 48.1771L90.1045 44.7083L92.6455 44.6698L95.1864 44.6312L92.2545 43.7062C85.8436 41.7021 84.0845 41.2781 83.7327 41.7406Z" fill="black"/>
</svg>
